<?xml version="1.0" standalone="no"?>
<!DOCTYPE svg PUBLIC "-//W3C//DTD SVG 20010904//EN"
 "http://www.w3.org/TR/2001/REC-SVG-20010904/DTD/svg10.dtd">
<svg version="1.0" xmlns="http://www.w3.org/2000/svg"
 width="300.000000pt" height="225.000000pt" viewBox="0 0 300.000000 225.000000"
 preserveAspectRatio="xMidYMid meet">
<metadata>
Created by potrace 1.10, written by Peter Selinger 2001-2011
</metadata>
<g transform="translate(0.000000,225.000000) scale(0.100000,-0.100000)"
fill="#000000" stroke="none">
<path d="M894 1849 c-91 -15 -208 -58 -269 -98 -241 -158 -146 -389 200 -482
109 -30 324 -32 440 -6 163 38 297 122 340 213 25 54 16 133 -21 187 -57 82
-181 146 -349 182 -76 16 -257 18 -341 4z m361 -26 c93 -20 202 -71 254 -118
166 -150 68 -333 -224 -417 -116 -33 -344 -33 -460 0 -250 72 -364 221 -272
358 61 93 224 173 392 194 87 11 218 4 310 -17z"/>
<path d="M760 1718 c0 -17 36 -77 66 -109 l25 -26 -88 -29 c-69 -23 -91 -35
-103 -56 -13 -25 -13 -29 3 -45 17 -17 19 -17 45 14 30 35 98 83 117 83 7 0
29 -15 50 -34 34 -32 81 -53 92 -43 2 3 -14 18 -37 33 -82 58 -79 53 -39 54
29 0 40 -6 54 -27 29 -46 87 -114 92 -109 8 8 -28 70 -60 104 l-31 32 31 0
c26 0 32 -5 38 -27 3 -16 17 -46 30 -68 31 -50 34 -21 5 44 -25 54 -20 64 9
18 25 -41 59 -73 68 -63 4 3 -10 23 -30 44 -43 44 -48 62 -12 38 14 -9 25 -12
25 -7 0 20 46 -4 85 -46 23 -23 47 -43 53 -43 23 0 12 19 -28 47 -22 15 -40
32 -40 36 0 14 43 -4 70 -28 32 -28 63 -45 87 -45 11 0 -1 12 -31 32 -56 37
-47 49 13 19 22 -12 57 -21 78 -20 l38 0 -40 18 -39 18 45 11 c26 6 57 21 70
33 l24 21 -25 -6 c-80 -19 -78 -20 -37 14 20 18 37 36 37 41 0 16 -61 -21
-109 -66 -35 -32 -51 -41 -61 -35 -8 6 -10 10 -4 10 14 0 78 89 70 97 -3 4
-16 -3 -29 -15 -28 -26 -39 -28 -30 -6 5 15 3 15 -23 1 -16 -8 -42 -29 -59
-46 -16 -17 -39 -30 -50 -30 -19 0 -19 0 2 18 74 62 85 72 80 78 -9 8 -74 -34
-96 -63 -10 -13 -27 -24 -37 -24 -14 1 -8 10 24 38 54 47 57 76 5 36 -21 -15
-44 -36 -51 -46 -7 -10 -25 -18 -39 -18 -26 0 -25 1 15 36 46 39 70 74 52 74
-6 0 -33 -22 -61 -50 -49 -49 -92 -72 -52 -27 24 26 43 61 43 78 0 20 -40 -22
-61 -63 -15 -29 -26 -38 -45 -38 -23 0 -22 3 27 52 31 31 47 54 40 56 -7 2
-28 -11 -47 -29 -40 -39 -44 -31 -9 15 27 35 30 46 16 46 -21 0 -75 -57 -94
-99 l-20 -46 -7 31 c-8 36 -45 88 -77 109 -17 12 -23 12 -23 3z m150 -123 c-7
-9 -15 -13 -17 -11 -7 7 7 26 19 26 6 0 6 -6 -2 -15z m371 -27 c-8 -24 -61
-39 -61 -19 0 6 6 11 14 11 7 0 19 7 26 15 19 22 31 18 21 -7z m89 -17 c0 -5
-7 -12 -16 -15 -14 -5 -15 -4 -4 9 14 17 20 19 20 6z"/>
<path d="M1110 1521 c0 -13 71 -73 78 -66 6 6 -57 75 -70 75 -4 0 -8 -4 -8 -9z"/>
<path d="M1140 1095 c7 -8 20 -15 28 -15 13 0 12 3 -4 15 -25 19 -40 19 -24 0z"/>
<path d="M490 1056 c0 -9 7 -12 20 -9 18 5 20 0 20 -51 0 -31 5 -56 10 -56 6
0 10 25 10 56 0 51 2 56 20 51 13 -3 20 0 20 9 0 10 -14 14 -50 14 -36 0 -50
-4 -50 -14z"/>
<path d="M610 1005 c0 -48 4 -65 14 -65 9 0 12 8 8 25 -4 22 -1 25 28 25 29 0
32 -3 28 -25 -4 -16 -1 -25 8 -25 15 0 17 98 1 118 -5 6 -27 12 -48 12 l-39 0
0 -65z m75 25 c0 -9 -11 -16 -27 -18 -23 -3 -28 1 -28 18 0 17 5 21 28 18 16
-2 27 -9 27 -18z"/>
<path d="M758 1059 c-13 -7 -18 -23 -18 -53 0 -52 16 -69 62 -64 32 3 33 5 36
51 2 27 -2 55 -9 63 -13 16 -46 18 -71 3z m57 -54 c0 -36 -2 -40 -25 -40 -20
0 -26 6 -28 28 -5 42 5 59 30 55 20 -3 23 -9 23 -43z"/>
<path d="M870 1005 c0 -51 3 -65 15 -65 12 0 15 14 15 65 0 51 -3 65 -15 65
-12 0 -15 -14 -15 -65z"/>
<path d="M943 1063 c-19 -7 -16 -60 3 -67 9 -3 27 -6 41 -6 15 0 23 -5 21 -12
-6 -18 -49 -22 -59 -7 -10 17 -23 4 -16 -16 8 -18 67 -21 85 -3 20 20 14 48
-13 58 -14 5 -31 9 -37 7 -6 -1 -13 4 -15 10 -7 19 27 28 49 14 25 -15 35 -7
18 14 -12 14 -52 19 -77 8z"/>
<path d="M1060 1005 c0 -37 4 -65 10 -65 6 0 10 28 10 65 0 37 -4 65 -10 65
-6 0 -10 -28 -10 -65z"/>
<path d="M1120 1068 c-1 -2 -2 -31 -3 -66 l-2 -62 43 0 c23 0 42 5 42 10 0 6
-13 10 -30 10 -22 0 -30 5 -30 18 0 15 6 18 30 14 23 -3 30 0 30 12 0 12 -7
14 -30 10 -26 -6 -30 -4 -30 16 0 18 5 21 30 18 16 -1 31 2 32 7 2 6 -16 11
-39 13 -24 2 -43 2 -43 0z"/>
<path d="M1230 1006 c0 -49 3 -66 14 -66 10 0 12 11 8 45 -2 25 -2 45 2 45 3
0 11 -20 17 -45 15 -58 35 -57 53 3 l15 47 0 -47 c1 -27 6 -48 11 -48 6 0 10
28 10 65 0 76 -21 90 -40 28 -6 -21 -14 -45 -17 -53 -3 -9 -12 5 -23 35 -10
29 -24 51 -33 53 -15 3 -17 -6 -17 -62z"/>
<path d="M1400 1068 c-1 -2 -2 -31 -3 -66 l-2 -62 43 0 c23 0 42 5 42 10 0 6
-13 10 -30 10 -22 0 -30 5 -30 18 0 15 6 18 30 14 23 -3 30 0 30 12 0 12 -7
14 -30 10 -26 -6 -30 -4 -30 16 0 19 4 22 30 18 20 -3 30 0 30 9 0 9 -13 13
-40 13 -22 0 -40 -1 -40 -2z"/>
<path d="M1560 1005 c0 -37 4 -65 10 -65 6 0 10 11 10 25 0 21 5 25 28 25 32
0 52 16 52 42 0 22 -29 38 -69 38 l-31 0 0 -65z m73 31 c7 -19 -1 -26 -30 -26
-16 0 -23 6 -23 20 0 14 7 20 24 20 13 0 26 -6 29 -14z"/>
<path d="M1680 1005 c0 -53 3 -65 16 -65 12 0 15 7 12 25 -5 22 -2 25 23 25
24 0 29 -4 29 -25 0 -14 4 -25 10 -25 13 0 11 101 -2 118 -6 6 -28 12 -49 12
l-39 0 0 -65z m75 25 c0 -9 -11 -16 -27 -18 -27 -3 -38 14 -21 32 12 12 48 2
48 -14z"/>
<path d="M1810 1005 c0 -51 3 -65 15 -65 12 0 15 14 15 65 0 51 -3 65 -15 65
-12 0 -15 -14 -15 -65z"/>
<path d="M1860 1065 c0 -3 10 -19 22 -35 19 -27 20 -31 6 -47 -25 -30 -30 -43
-15 -43 7 0 20 11 27 26 l14 25 13 -25 c8 -15 21 -26 29 -26 12 0 11 6 -6 30
-23 32 -22 39 6 78 13 18 14 22 3 22 -8 0 -22 -12 -31 -27 l-16 -27 -13 27
c-10 23 -39 39 -39 22z"/>
<path d="M1150 847 c-16 -8 -26 -23 -28 -40 -2 -15 -9 -27 -18 -27 -8 0 -14
-4 -14 -10 0 -5 7 -10 15 -10 12 0 15 -14 15 -70 0 -56 3 -70 15 -70 12 0 15
14 15 70 l0 70 30 0 c17 0 30 5 30 10 0 6 -13 10 -30 10 -23 0 -30 4 -30 20 0
26 27 37 53 21 23 -15 45 0 25 16 -24 19 -53 23 -78 10z"/>
<path d="M671 840 c-16 -9 -6 -30 15 -30 15 0 20 25 6 34 -4 2 -14 1 -21 -4z"/>
<path d="M1708 811 l4 -39 -44 5 c-59 7 -78 -12 -78 -76 0 -64 19 -81 90 -79
l55 1 0 114 c0 95 -2 113 -15 113 -12 0 -15 -9 -12 -39z m-14 -67 c29 -28 16
-89 -21 -99 -34 -8 -53 11 -53 54 0 57 39 81 74 45z"/>
<path d="M2117 843 c-4 -3 -7 -12 -7 -20 0 -15 26 -18 34 -4 7 11 -18 33 -27
24z"/>
<path d="M985 820 c-12 -13 -14 -20 -6 -20 7 0 24 9 38 20 23 18 24 20 6 20
-11 0 -28 -9 -38 -20z"/>
<path d="M1970 810 c0 -20 -5 -30 -15 -30 -8 0 -15 -4 -15 -10 0 -5 7 -10 15
-10 11 0 15 -12 15 -51 0 -69 12 -89 55 -89 24 0 39 7 50 22 18 27 0 39 -19
13 -7 -9 -21 -16 -32 -13 -16 3 -20 13 -22 61 l-3 57 36 0 c19 0 35 5 35 10 0
6 -16 10 -35 10 -32 0 -35 2 -35 30 0 20 -5 30 -15 30 -10 0 -15 -10 -15 -30z"/>
<path d="M506 764 c-23 -23 -21 -106 2 -127 23 -21 86 -22 106 -1 20 20 20 34
1 34 -8 0 -15 -4 -15 -9 0 -16 -38 -23 -60 -11 -26 14 -29 94 -4 104 27 11 54
7 60 -9 7 -18 34 -20 34 -2 0 24 -24 37 -66 37 -25 0 -49 -6 -58 -16z"/>
<path d="M670 700 c0 -64 3 -80 15 -80 12 0 15 16 15 80 0 64 -3 80 -15 80
-12 0 -15 -16 -15 -80z"/>
<path d="M750 699 c0 -64 3 -79 15 -79 12 0 15 13 15 59 0 64 13 85 52 79 21
-3 23 -9 26 -70 2 -52 6 -68 17 -68 20 0 21 132 1 149 -7 6 -38 10 -70 10
l-56 -2 0 -78z"/>
<path d="M946 764 c-23 -23 -21 -106 2 -127 23 -21 86 -22 106 -1 20 20 20 34
1 34 -8 0 -15 -4 -15 -9 0 -14 -36 -23 -59 -16 -10 3 -21 15 -24 25 -5 18 0
20 54 20 59 0 59 0 59 29 0 16 -7 37 -16 45 -20 21 -88 21 -108 0z m92 -29 c2
-17 -3 -20 -38 -20 -30 0 -40 4 -40 16 0 24 11 30 45 27 21 -2 31 -9 33 -23z"/>
<path d="M1242 768 c-18 -18 -15 -113 4 -132 18 -18 76 -21 105 -6 15 9 19 22
19 68 0 32 -5 63 -12 70 -7 7 -33 12 -58 12 -25 0 -51 -5 -58 -12z m99 -29 c6
-12 8 -36 5 -54 -7 -36 -31 -51 -66 -40 -16 5 -20 15 -20 54 0 55 4 61 41 61
19 0 32 -7 40 -21z"/>
<path d="M1415 699 c0 -64 3 -79 15 -79 12 0 15 13 15 60 0 64 12 82 50 78 17
-3 20 -12 23 -70 2 -52 6 -68 17 -68 20 0 21 132 1 149 -7 6 -37 10 -67 10
l-54 -2 0 -78z"/>
<path d="M1792 768 c-14 -14 -16 -38 -3 -38 5 0 14 7 21 15 17 20 66 19 74 -1
9 -24 9 -24 -37 -24 -65 0 -99 -47 -61 -84 10 -11 32 -15 72 -14 l57 1 -3 66
c-2 36 -8 72 -14 79 -13 15 -90 16 -106 0z m98 -82 c0 -33 -39 -53 -74 -40
-19 7 -21 40 -3 47 28 12 77 7 77 -7z"/>
<path d="M2110 700 c0 -64 3 -80 15 -80 12 0 15 16 15 80 0 64 -3 80 -15 80
-12 0 -15 -16 -15 -80z"/>
<path d="M2199 763 c-22 -26 -18 -112 5 -129 28 -20 89 -18 109 4 22 24 23
105 1 126 -21 22 -97 21 -115 -1z m85 -9 c25 -9 22 -90 -3 -104 -27 -14 -37
-13 -55 6 -19 18 -21 75 -4 92 13 13 37 15 62 6z"/>
<path d="M2370 699 c0 -64 3 -79 15 -79 12 0 15 13 15 59 0 64 13 85 52 79 21
-3 23 -9 26 -70 2 -52 6 -68 17 -68 12 0 15 14 15 61 0 89 -8 99 -80 98 l-60
-2 0 -78z"/>
<path d="M860 510 c-13 -8 -13 -10 2 -10 9 0 20 5 23 10 8 13 -5 13 -25 0z"/>
<path d="M490 435 l0 -55 35 0 c19 0 35 5 35 10 0 6 -11 10 -25 10 -23 0 -25
4 -25 45 0 25 -4 45 -10 45 -5 0 -10 -25 -10 -55z"/>
<path d="M591 438 c-22 -52 -20 -77 3 -45 17 22 35 22 52 0 7 -10 15 -15 18
-12 8 7 -34 109 -44 109 -4 0 -17 -23 -29 -52z m39 -4 c0 -8 -4 -14 -10 -14
-5 0 -10 9 -10 21 0 11 5 17 10 14 6 -3 10 -13 10 -21z"/>
<path d="M729 474 c-18 -21 0 -48 35 -52 14 -2 26 -7 26 -12 0 -14 -32 -21
-47 -9 -15 13 -28 6 -18 -10 3 -6 21 -11 40 -11 25 0 35 5 40 20 9 28 -2 40
-36 40 -19 0 -29 5 -29 15 0 17 35 21 45 5 4 -6 11 -8 16 -4 16 9 -10 34 -36
34 -12 0 -28 -7 -36 -16z"/>
<path d="M830 435 l0 -55 40 0 c22 0 40 5 40 10 0 6 -13 10 -30 10 -20 0 -30
5 -30 15 0 11 7 14 24 9 13 -3 27 -1 30 5 5 7 -4 11 -23 11 -21 0 -31 5 -31
15 0 10 10 15 30 15 17 0 30 5 30 10 0 6 -18 10 -40 10 l-40 0 0 -55z"/>
<path d="M930 435 l0 -55 35 0 c19 0 35 5 35 10 0 6 -11 10 -25 10 -23 0 -25
4 -25 45 0 25 -4 45 -10 45 -5 0 -10 -25 -10 -55z"/>
<path d="M1020 435 l0 -55 41 0 c24 0 38 4 34 10 -3 6 -17 10 -31 10 -14 0
-24 6 -24 14 0 9 8 12 25 8 15 -2 25 0 25 7 0 6 -11 11 -25 11 -16 0 -25 6
-25 15 0 10 10 15 31 15 17 0 28 4 24 10 -3 6 -22 10 -41 10 l-34 0 0 -55z"/>
<path d="M1132 481 c-9 -5 -12 -24 -10 -52 3 -43 4 -44 37 -44 21 0 36 6 39
14 3 10 0 12 -14 7 -35 -14 -39 -11 -42 27 -3 32 0 37 17 37 12 0 21 -4 21
-10 0 -5 5 -10 10 -10 16 0 11 27 -6 34 -21 8 -36 7 -52 -3z"/>
<path d="M1210 480 c0 -5 9 -10 20 -10 17 0 20 -7 20 -45 0 -25 5 -45 10 -45
6 0 10 20 10 45 0 33 4 45 15 45 8 0 15 5 15 10 0 6 -20 10 -45 10 -25 0 -45
-4 -45 -10z"/>
<path d="M1320 435 c0 -30 5 -55 10 -55 6 0 10 25 10 55 0 30 -4 55 -10 55 -5
0 -10 -25 -10 -55z"/>
<path d="M1370 471 c-26 -50 -3 -95 47 -89 25 3 28 8 31 41 2 21 -2 45 -9 53
-17 20 -57 17 -69 -5z m58 -35 c4 -30 -12 -48 -35 -39 -14 5 -18 54 -6 67 15
15 38 -1 41 -28z"/>
<path d="M1478 435 c-2 -40 1 -55 10 -55 9 0 11 10 6 36 -8 44 7 40 26 -6 21
-50 40 -38 40 25 0 30 -4 55 -10 55 -5 0 -10 -17 -10 -37 l-1 -38 -22 37 c-12
21 -25 38 -29 38 -3 0 -8 -25 -10 -55z"/>
</g>
</svg>
