<?xml version="1.0" standalone="no"?>
<!DOCTYPE svg PUBLIC "-//W3C//DTD SVG 20010904//EN"
 "http://www.w3.org/TR/2001/REC-SVG-20010904/DTD/svg10.dtd">
<svg version="1.0" xmlns="http://www.w3.org/2000/svg"
 width="900.000000pt" height="675.000000pt" viewBox="0 0 900.000000 675.000000"
 preserveAspectRatio="xMidYMid meet">
<metadata>
Created by potrace 1.10, written by Peter Selinger 2001-2011
</metadata>
<g transform="translate(0.000000,675.000000) scale(0.100000,-0.100000)"
fill="#ffffff" stroke="none">
<path d="M2875 5569 c-111 -11 -275 -37 -340 -53 -33 -8 -87 -21 -120 -29 -71
-17 -204 -62 -242 -82 -16 -8 -32 -15 -37 -15 -9 0 -190 -89 -231 -113 -48
-29 -174 -125 -219 -166 -88 -83 -164 -196 -207 -311 -7 -19 -15 -83 -17 -141
-3 -88 0 -117 18 -169 41 -123 109 -224 214 -319 22 -20 47 -43 56 -52 32 -30
250 -169 266 -169 2 0 32 -13 66 -28 127 -58 261 -105 363 -127 159 -35 258
-54 350 -66 132 -17 573 -24 645 -9 30 6 93 15 140 20 104 12 289 50 375 78
17 5 57 18 90 28 33 10 69 24 80 31 11 7 25 13 32 13 18 0 211 93 256 124 21
14 40 26 43 26 3 0 40 27 82 59 147 112 232 221 298 381 27 63 27 254 0 325
-81 220 -249 385 -551 539 -49 25 -94 46 -100 46 -5 0 -22 6 -36 14 -15 7 -60
24 -100 36 -41 13 -81 27 -89 31 -8 5 -37 13 -65 19 -27 6 -79 18 -115 26 -76
18 -232 42 -345 54 -96 10 -462 10 -560 -1z m550 -60 c77 -6 143 -13 148 -16
4 -2 45 -11 90 -18 45 -7 109 -21 142 -30 33 -9 79 -20 102 -25 23 -5 50 -13
60 -19 10 -5 41 -17 68 -26 214 -74 423 -202 555 -341 68 -71 76 -83 116 -166
51 -102 54 -117 54 -223 0 -105 -3 -118 -52 -220 -26 -56 -37 -73 -82 -129
-32 -39 -139 -136 -191 -174 -16 -11 -68 -46 -87 -57 -60 -36 -223 -115 -237
-115 -9 0 -21 -4 -26 -9 -14 -13 -204 -74 -295 -95 -41 -10 -93 -22 -115 -27
-22 -5 -78 -14 -125 -19 -47 -6 -125 -15 -175 -21 -102 -13 -449 -6 -535 10
-30 5 -89 14 -130 20 -41 6 -104 17 -140 26 -36 9 -86 20 -111 25 -26 4 -55
13 -65 18 -11 5 -52 20 -92 32 -40 12 -75 26 -78 31 -3 5 -13 9 -23 9 -21 0
-186 83 -261 131 -162 105 -297 245 -344 359 -10 25 -24 60 -32 78 -20 47 -19
210 2 259 45 105 64 138 113 203 86 112 234 224 409 310 48 24 103 50 122 58
19 8 42 18 50 22 9 4 31 11 50 15 19 4 40 11 46 16 6 5 31 13 55 19 24 5 71
16 104 26 33 9 94 22 135 29 41 7 87 15 101 19 44 12 360 33 449 29 47 -2 148
-8 225 -14z"/>
<path d="M2264 5155 c-7 -26 27 -102 72 -162 13 -17 24 -35 24 -38 0 -11 93
-128 133 -168 22 -21 36 -44 34 -52 -3 -7 -32 -18 -64 -24 -32 -6 -71 -16 -88
-22 -16 -6 -48 -14 -70 -18 -22 -4 -49 -12 -60 -18 -29 -15 -86 -34 -117 -40
-15 -3 -33 -11 -39 -19 -6 -8 -17 -14 -25 -14 -41 0 -124 -117 -124 -175 0
-34 52 -85 87 -85 23 0 39 14 88 73 70 84 166 159 268 209 107 53 124 53 164
-1 41 -55 156 -148 213 -171 14 -6 34 -14 45 -19 38 -17 52 -19 66 -10 11 6
11 13 3 26 -19 31 -136 121 -202 155 -66 34 -110 73 -98 85 4 5 47 10 96 11
106 5 94 14 210 -163 77 -119 89 -135 156 -207 34 -38 74 -51 74 -25 0 8 -11
34 -24 58 -14 24 -34 62 -46 84 -27 48 -70 102 -140 173 -70 71 -64 84 36 78
81 -4 93 -12 94 -56 1 -53 138 -341 160 -337 34 6 1 150 -59 259 -16 29 -37
68 -47 86 -17 28 -17 34 -4 42 11 7 21 3 37 -18 13 -15 23 -30 23 -35 0 -18
98 -147 152 -199 63 -61 88 -72 88 -37 0 26 -40 77 -139 176 -39 39 -71 79
-71 87 0 19 2 19 52 4 30 -9 47 -23 73 -62 75 -112 216 -246 260 -246 53 0
-42 121 -162 207 -42 30 -63 52 -63 65 0 14 5 18 15 14 8 -3 37 -8 64 -12 44
-6 52 -11 87 -57 97 -126 220 -226 261 -210 34 13 5 50 -107 134 -119 90 -142
119 -95 119 76 0 119 -22 205 -104 47 -45 106 -92 133 -105 118 -57 188 -26
80 36 -141 81 -199 125 -187 144 11 18 58 3 181 -56 109 -53 121 -56 213 -62
82 -5 98 -3 103 10 9 25 -8 33 -145 68 -26 6 -53 18 -59 25 -13 16 -10 17 61
34 25 6 61 15 80 20 75 18 209 82 236 111 9 10 14 26 10 35 -7 19 -49 14 -101
-10 -111 -53 -180 -68 -180 -39 0 6 49 49 110 95 109 82 123 100 106 127 -14
22 -79 -12 -216 -114 -80 -59 -114 -91 -191 -179 -31 -36 -47 -46 -71 -46 -17
0 -36 7 -43 15 -10 12 0 28 57 92 109 123 165 200 161 226 -5 39 -55 14 -156
-80 -14 -13 -29 -23 -33 -23 -12 0 -11 17 1 25 11 7 14 48 4 58 -8 7 -47 -13
-116 -61 -68 -46 -94 -68 -166 -140 -62 -61 -65 -63 -110 -60 -25 2 -47 8 -48
13 -2 6 15 23 37 39 22 15 77 60 121 98 45 38 92 76 105 85 26 17 30 41 9 49
-34 13 -131 -51 -235 -154 -57 -56 -111 -103 -120 -104 -44 -3 -71 3 -71 16 0
8 28 36 63 62 92 71 187 165 187 185 0 33 -33 32 -74 -3 -6 -4 -40 -30 -76
-57 -63 -47 -117 -100 -153 -151 -15 -21 -23 -24 -73 -22 -88 4 -92 14 -21 59
56 34 201 184 217 223 19 46 1 59 -46 34 -57 -29 -190 -159 -236 -230 -35 -53
-47 -64 -70 -64 -21 0 -28 5 -28 19 0 11 4 22 9 25 11 7 121 170 121 180 0 4
9 19 20 33 26 34 27 83 1 83 -30 0 -136 -131 -171 -212 -6 -13 -14 -30 -18
-38 -5 -8 -15 -28 -23 -45 -14 -29 -18 -30 -87 -33 -101 -4 -99 17 9 97 47 35
110 99 198 204 10 13 12 20 3 29 -20 20 -57 -2 -146 -87 -50 -47 -95 -85 -102
-85 -18 0 -25 28 -11 42 7 7 43 52 80 99 72 93 84 129 43 129 -43 0 -190 -132
-231 -208 -11 -20 -25 -44 -30 -52 -6 -8 -20 -44 -31 -80 -33 -98 -73 -108
-74 -19 0 82 -123 258 -239 343 -27 20 -51 36 -55 36 -3 0 -8 -11 -12 -25z
m491 -335 c8 -13 -28 -59 -59 -76 -44 -22 -49 9 -10 55 26 31 57 40 69 21z
m1105 -75 c0 -8 -4 -15 -9 -15 -5 0 -13 -19 -19 -42 -19 -74 -29 -81 -100 -73
-52 6 -62 10 -62 26 0 12 12 24 33 33 17 7 52 30 77 49 48 38 80 47 80 22z
m240 -100 c0 -18 -8 -29 -27 -38 -16 -6 -31 -16 -35 -22 -12 -17 -32 10 -21
30 10 17 62 55 76 55 4 0 7 -11 7 -25z"/>
<path d="M3380 3304 c0 -27 61 -74 97 -74 43 0 48 12 15 42 -50 47 -112 65
-112 32z"/>
<path d="M1453 3185 c-2 -8 -3 -24 -1 -37 3 -21 7 -23 61 -20 41 2 57 0 59
-10 0 -7 2 -80 2 -163 l1 -150 35 0 35 0 0 160 0 160 45 1 c25 1 51 2 58 3 9
1 12 12 10 34 l-3 32 -148 1 c-115 2 -150 -1 -154 -11z"/>
<path d="M1831 3186 c-8 -9 -11 -70 -9 -197 l3 -184 35 0 35 0 -3 78 -3 78 78
-3 78 -3 0 -65 c0 -36 4 -71 8 -77 10 -16 53 -17 63 -1 13 20 3 140 -13 165
-14 21 -14 25 1 42 10 11 16 35 16 62 0 53 -28 91 -79 108 -50 16 -196 14
-210 -3z m201 -73 c23 -21 23 -55 -1 -77 -14 -13 -33 -16 -77 -14 l-59 3 -3
39 c-2 21 -1 44 2 52 8 21 114 19 138 -3z"/>
<path d="M2275 3183 c-59 -32 -64 -46 -65 -184 l0 -125 36 -35 c34 -33 37 -34
117 -34 71 0 86 3 114 24 27 20 33 33 39 78 3 30 4 92 2 138 -5 91 -16 113
-70 141 -36 19 -136 17 -173 -3z m153 -73 c19 -18 22 -31 22 -108 0 -115 -11
-132 -85 -132 -47 0 -57 3 -71 26 -34 52 -31 172 7 212 27 30 96 30 127 2z"/>
<path d="M2614 3186 c-3 -8 -6 -96 -7 -196 -2 -178 -2 -181 20 -186 12 -3 30
-4 40 -2 17 3 18 17 18 198 l0 195 -33 3 c-21 2 -34 -2 -38 -12z"/>
<path d="M2834 3185 c-42 -19 -53 -35 -60 -86 -12 -90 33 -129 147 -129 46 0
64 -5 79 -20 19 -19 19 -22 5 -50 -15 -29 -19 -30 -79 -30 -57 0 -65 3 -80 25
-17 26 -59 34 -71 15 -12 -19 6 -65 31 -84 29 -20 123 -32 178 -22 19 4 49 20
66 37 26 26 30 38 30 83 0 73 -24 94 -121 108 -121 16 -119 15 -119 46 0 41
17 52 80 52 47 0 60 -4 80 -25 30 -32 80 -35 80 -5 0 32 -30 70 -68 85 -42 18
-136 18 -178 0z"/>
<path d="M3170 3183 c-1 -117 -1 -361 -1 -371 1 -9 12 -12 34 -10 l32 3 0 195
0 195 -32 3 c-26 3 -33 0 -33 -15z"/>
<path d="M3347 3188 c-9 -5 -12 -62 -12 -193 -1 -158 1 -186 15 -189 8 -2 64
-4 123 -5 107 -2 137 5 137 33 -1 33 -18 39 -109 37 l-90 -2 -7 27 c-4 15 -3
39 2 53 9 25 12 26 74 23 36 -2 73 -6 82 -8 21 -6 41 29 33 57 -6 19 -12 20
-95 13 -84 -6 -88 -5 -95 15 -3 12 -3 35 0 52 l7 30 90 -2 c96 -3 113 5 98 45
-7 20 -15 21 -124 21 -65 0 -123 -3 -129 -7z"/>
<path d="M3694 3188 c-5 -7 -9 -96 -9 -198 l0 -185 25 -3 c48 -5 51 5 41 123
-11 129 -3 158 26 94 20 -43 46 -126 58 -181 3 -19 13 -30 30 -34 48 -12 45
-16 106 183 12 40 26 70 31 67 5 -3 8 -58 7 -121 -1 -66 3 -119 9 -125 5 -5
20 -8 33 -6 l23 3 -1 190 c-1 105 -2 193 -3 198 0 4 -18 7 -40 7 -39 0 -42 -2
-60 -46 -11 -25 -20 -54 -20 -64 0 -11 -6 -34 -14 -52 -8 -18 -22 -54 -31 -80
-16 -47 -32 -61 -39 -35 -14 55 -40 138 -52 165 -8 18 -14 43 -14 56 0 13 -8
30 -18 39 -22 20 -76 22 -88 5z"/>
<path d="M4183 3188 c-4 -7 -8 -95 -9 -196 -1 -214 -17 -194 151 -190 l110 3
3 33 c2 21 -1 32 -10 33 -7 0 -51 1 -98 2 l-85 2 -3 41 c-4 57 8 64 98 54 84
-9 103 -2 98 39 l-3 26 -92 -3 c-92 -3 -92 -3 -99 22 -3 14 -3 38 0 52 l7 26
92 -3 92 -4 0 35 0 35 -122 3 c-90 2 -124 -1 -130 -10z"/>
<path d="M4677 3193 c-4 -7 -11 -329 -8 -381 1 -9 12 -12 34 -10 l32 3 0 75 0
75 79 3 c50 2 87 9 103 19 29 19 53 63 53 97 0 39 -30 93 -59 107 -31 15 -226
25 -234 12z m208 -93 c14 -27 14 -32 -1 -55 -16 -24 -22 -26 -83 -23 -64 3
-66 4 -69 32 -2 15 -1 39 2 52 6 22 11 24 71 24 62 0 65 -1 80 -30z"/>
<path d="M5043 3188 c-5 -7 -9 -96 -9 -198 l1 -185 30 -3 c51 -4 58 7 48 75
-5 33 -7 65 -5 71 2 8 29 12 73 12 81 0 82 -2 83 -95 1 -59 2 -60 30 -63 16
-2 32 2 36 8 12 19 -1 143 -17 168 -13 21 -13 26 1 41 10 11 16 36 16 68 0 84
-50 113 -196 113 -54 0 -85 -4 -91 -12z m207 -78 c24 -24 25 -38 4 -68 -13
-18 -25 -22 -73 -22 -31 0 -62 5 -69 12 -15 15 -16 53 -2 79 15 28 112 27 140
-1z"/>
<path d="M5424 3187 c-2 -7 -3 -96 -2 -197 l3 -185 29 -3 c16 -2 33 1 38 6 11
11 13 366 3 383 -9 14 -65 11 -71 -4z"/>
<path d="M5570 3186 c0 -8 27 -51 60 -95 33 -45 60 -86 60 -92 0 -5 -27 -46
-60 -89 -70 -91 -74 -110 -27 -110 42 0 47 5 83 75 17 33 37 60 45 60 7 0 30
-29 50 -65 35 -62 38 -65 78 -68 34 -3 41 0 41 15 0 10 -13 33 -28 50 -53 64
-92 122 -92 140 0 10 12 32 28 48 37 42 92 121 92 134 0 6 -17 11 -38 11 -31
0 -43 -6 -60 -30 -12 -16 -22 -32 -22 -36 0 -4 -10 -22 -21 -41 -19 -31 -23
-33 -37 -20 -8 9 -27 39 -42 69 -26 50 -30 53 -69 56 -31 2 -41 0 -41 -12z"/>
<path d="M3460 2547 c-74 -25 -113 -78 -110 -150 3 -67 3 -67 -40 -67 -35 0
-40 -3 -40 -24 0 -30 20 -47 51 -44 l24 3 3 -205 c2 -148 6 -206 15 -212 18
-11 65 -10 72 3 4 5 8 101 8 212 l2 202 86 -4 86 -3 7 27 c11 42 -6 50 -102
50 l-87 0 3 55 c4 69 25 90 89 90 34 0 53 -6 75 -25 33 -28 79 -33 98 -10 11
13 8 22 -17 53 -45 56 -140 76 -223 49z"/>
<path d="M5105 2540 c-7 -11 1 -148 11 -203 7 -33 -18 -47 -44 -24 -31 27
-112 38 -176 23 -105 -25 -136 -83 -136 -250 0 -119 18 -168 75 -212 33 -25
45 -28 120 -28 65 -1 87 3 102 17 24 21 52 22 59 2 4 -10 19 -15 43 -15 l36 0
0 348 -1 347 -41 3 c-23 2 -44 -2 -48 -8z m-65 -292 c52 -27 69 -61 69 -146 1
-82 -17 -140 -48 -156 -45 -23 -91 -29 -135 -16 -62 17 -76 47 -76 160 0 105
13 139 62 163 45 22 76 21 128 -5z"/>
<path d="M2003 2518 c-52 -25 -28 -98 31 -98 41 0 56 16 56 57 0 47 -38 65
-87 41z"/>
<path d="M6330 2510 c-24 -24 -25 -38 -4 -68 20 -29 79 -31 94 -3 15 29 12 56
-8 74 -25 23 -58 21 -82 -3z"/>
<path d="M2953 2464 c-35 -31 -60 -61 -57 -65 3 -5 23 -9 45 -9 32 0 50 9 101
50 35 28 63 56 63 63 0 7 -18 13 -45 15 -43 3 -49 0 -107 -54z"/>
<path d="M5905 2509 c-4 -6 -6 -47 -4 -92 l4 -82 -42 -3 c-40 -3 -43 -5 -43
-32 0 -30 21 -44 51 -35 9 3 21 0 26 -7 4 -7 6 -76 4 -154 -3 -126 -1 -145 17
-181 32 -62 63 -77 157 -78 69 0 85 3 110 23 39 30 54 59 55 100 0 30 -2 32
-35 32 -29 0 -37 -5 -46 -27 -5 -14 -17 -32 -27 -39 -24 -19 -88 -17 -117 2
-25 16 -25 18 -25 170 0 84 4 155 8 158 5 3 50 2 101 -2 102 -9 115 -3 109 45
l-3 28 -109 -4 -108 -3 2 83 c2 46 2 90 1 97 -1 15 -77 17 -86 1z"/>
<path d="M1605 2336 c-68 -15 -91 -30 -120 -76 -23 -37 -25 -49 -25 -164 0
-141 10 -171 78 -222 34 -27 42 -28 137 -28 84 0 105 4 134 21 42 26 71 69 71
106 0 25 -3 27 -45 27 -38 0 -45 -3 -45 -20 0 -61 -161 -80 -216 -25 -22 23
-24 31 -24 138 0 122 5 134 67 166 57 29 154 1 172 -50 9 -27 14 -30 48 -27
34 3 38 6 41 33 2 23 -6 40 -30 69 -28 31 -44 40 -98 51 -75 16 -79 16 -145 1z"/>
<path d="M2420 2338 c-25 -5 -51 -16 -59 -23 -12 -11 -18 -10 -42 7 -18 13
-36 19 -51 15 l-23 -6 -1 -240 0 -239 31 -6 c64 -12 65 -11 58 155 -5 131 -4
154 12 190 35 77 143 103 202 47 24 -23 24 -23 22 -201 -1 -101 2 -182 7 -187
5 -5 26 -7 47 -3 l37 6 0 189 c0 155 -3 195 -16 220 -23 44 -52 65 -99 73 -22
3 -49 8 -60 10 -11 2 -40 -1 -65 -7z"/>
<path d="M3820 2337 c-67 -15 -95 -32 -123 -77 -20 -32 -22 -48 -22 -170 0
-124 2 -138 23 -167 12 -17 39 -42 59 -54 33 -20 50 -23 138 -23 88 1 104 4
136 25 71 48 74 56 74 228 l0 153 -42 38 c-41 36 -55 41 -158 54 -16 3 -55 -1
-85 -7z m150 -85 c28 -15 37 -28 47 -68 26 -99 9 -213 -35 -242 -33 -21 -136
-23 -177 -2 -16 8 -32 26 -36 40 -11 39 -10 196 1 224 22 60 129 85 200 48z"/>
<path d="M4410 2338 c-25 -5 -53 -17 -63 -26 -16 -14 -19 -14 -38 6 -21 23
-53 29 -64 12 -3 -5 -7 -115 -8 -244 l-2 -236 26 -5 c34 -8 83 11 76 29 -3 7
-9 65 -12 129 -9 144 3 207 47 238 43 31 105 35 146 10 37 -24 35 -11 32 -232
l-2 -166 35 -7 c64 -12 63 -17 59 207 l-4 202 -27 35 c-23 28 -39 37 -87 47
-32 7 -61 12 -64 11 -3 0 -25 -5 -50 -10z"/>
<path d="M5452 2337 c-54 -10 -69 -18 -98 -50 -45 -48 -45 -90 -1 -95 23 -3
37 5 67 38 l39 42 76 -4 c67 -3 79 -6 95 -28 19 -25 32 -69 23 -82 -2 -5 -51
-8 -109 -8 -132 0 -189 -21 -222 -79 -42 -74 -17 -168 54 -206 51 -27 204 -27
234 0 19 17 50 15 50 -5 0 -5 17 -10 38 -10 l38 0 -3 188 c-2 103 -6 197 -8
208 -8 37 -63 81 -108 88 -88 14 -104 14 -165 3z m198 -272 c9 -11 8 -25 -5
-66 -21 -61 -53 -79 -143 -79 -72 0 -112 25 -112 70 0 43 10 61 44 76 44 19
200 19 216 -1z"/>
<path d="M6688 2336 c-75 -15 -120 -54 -136 -118 -15 -59 -14 -199 1 -258 24
-89 124 -131 271 -114 52 6 63 12 107 56 l49 49 0 135 c0 125 -2 137 -24 172
-32 51 -59 67 -137 81 -36 6 -68 11 -70 10 -2 -1 -30 -6 -61 -13z m151 -86
c21 -10 41 -26 45 -35 3 -9 6 -68 6 -130 0 -110 -1 -114 -26 -134 -59 -46
-191 -34 -219 20 -23 43 -23 195 -1 237 31 60 122 80 195 42z"/>
<path d="M7273 2337 c-23 -7 -47 -17 -54 -24 -9 -9 -18 -7 -40 9 -19 14 -35
19 -53 14 l-26 -6 0 -239 0 -239 36 -7 c22 -4 41 -2 47 4 7 7 10 69 8 168 -2
141 0 161 17 189 43 68 153 84 200 28 23 -26 24 -31 21 -200 -2 -115 1 -178 8
-185 6 -6 25 -8 47 -3 l37 6 -3 198 -3 198 -31 38 c-26 32 -41 41 -90 51 -69
14 -67 14 -121 0z"/>
<path d="M2003 2333 c-10 -3 -13 -62 -13 -243 0 -263 -2 -257 64 -245 l31 6 0
239 c0 231 -1 239 -20 244 -24 7 -45 6 -62 -1z"/>
<path d="M2897 2331 c-20 -4 -48 -18 -62 -31 -45 -43 -55 -79 -55 -209 0 -142
15 -184 77 -221 33 -20 51 -23 140 -23 82 0 107 3 121 16 10 10 23 17 29 17
18 0 55 67 51 92 -2 19 -10 24 -41 26 -32 3 -38 0 -47 -22 -13 -35 -59 -56
-122 -56 -77 0 -115 26 -124 85 -3 25 -4 49 0 52 3 4 80 5 171 4 l165 -2 0 73
c0 83 -25 147 -71 181 -30 22 -165 32 -232 18z m174 -78 c33 -19 59 -87 41
-105 -6 -6 -64 -11 -129 -11 l-118 -1 1 39 c1 30 9 45 33 67 26 24 40 28 87
28 35 0 67 -6 85 -17z"/>
<path d="M6338 2333 c-16 -4 -17 -24 -15 -243 l2 -239 31 -6 c60 -11 59 -17
59 243 0 146 -4 240 -10 244 -11 8 -39 9 -67 1z"/>
<path d="M2582 1538 c-34 -24 -38 -51 -9 -56 21 -4 87 37 87 54 0 11 -21 24
-38 24 -4 0 -22 -10 -40 -22z"/>
<path d="M1454 1447 c-2 -7 -3 -82 -2 -167 l3 -155 106 -3 c90 -2 108 0 113
13 3 9 1 25 -5 37 -9 17 -19 19 -77 16 l-67 -3 -3 138 -3 137 -30 0 c-16 0
-32 -6 -35 -13z"/>
<path d="M1807 1420 c-10 -22 -24 -59 -33 -82 -19 -52 -34 -88 -62 -149 -22
-51 -16 -69 24 -69 16 0 25 11 38 45 l18 45 54 0 55 0 19 -45 c17 -39 23 -45
49 -45 35 0 43 16 26 50 -36 70 -55 112 -55 122 0 6 -14 47 -32 90 -29 70 -35
78 -58 78 -22 0 -30 -8 -43 -40z m63 -89 c25 -48 3 -90 -41 -76 -19 6 -19 16
-2 78 6 23 30 22 43 -2z"/>
<path d="M2200 1442 c-39 -27 -49 -44 -50 -88 0 -60 31 -85 117 -93 73 -7 93
-15 93 -36 0 -45 -102 -63 -140 -25 -11 11 -31 20 -45 20 -20 0 -25 -5 -25
-25 0 -46 36 -70 115 -73 83 -3 112 9 139 59 21 39 18 69 -11 106 -15 18 -32
24 -93 29 -41 4 -78 12 -82 18 -39 57 70 91 130 41 35 -29 36 -30 56 -9 14 14
14 18 2 36 -40 57 -150 78 -206 40z"/>
<path d="M2484 1446 c-2 -6 -3 -81 -2 -166 l3 -155 104 -3 c119 -3 147 8 121
48 -7 11 -29 15 -87 15 l-78 0 -3 28 c-5 46 10 55 81 50 50 -4 65 -2 76 11 11
13 11 19 0 32 -10 12 -28 15 -83 12 l-71 -3 0 40 0 40 77 0 c84 0 106 10 90
42 -9 17 -23 19 -117 21 -76 0 -107 -3 -111 -12z"/>
<path d="M2782 1293 l3 -168 103 -3 c111 -3 126 4 102 48 -10 19 -18 21 -78
18 l-67 -3 0 135 0 135 -33 3 -32 3 2 -168z"/>
<path d="M3047 1445 c-11 -27 -6 -299 5 -312 14 -17 199 -18 216 -1 16 16 15
23 -3 42 -12 12 -30 14 -78 9 -74 -7 -97 9 -81 55 9 26 11 27 81 24 65 -4 72
-2 78 17 11 36 -3 43 -78 39 -70 -3 -72 -2 -81 24 -7 20 -6 31 4 43 12 14 26
16 81 11 52 -6 68 -4 78 8 9 11 10 20 1 35 -10 19 -20 21 -114 21 -82 0 -105
-3 -109 -15z"/>
<path d="M3390 1438 c-39 -27 -58 -73 -59 -143 -1 -65 15 -121 42 -148 18 -18
36 -23 94 -26 70 -3 74 -2 103 28 58 57 16 111 -44 56 -17 -16 -38 -25 -59
-25 -56 0 -62 10 -62 105 0 74 3 89 19 101 32 23 72 17 106 -16 36 -35 46 -37
60 -10 13 24 1 50 -36 79 -38 30 -119 29 -164 -1z"/>
<path d="M3636 1453 c-3 -4 -6 -17 -6 -29 0 -23 31 -41 50 -29 6 3 20 3 31 0
20 -7 21 -13 18 -131 -3 -132 1 -148 42 -142 24 3 24 4 25 131 1 70 5 131 9
135 4 4 23 7 43 7 34 0 37 2 37 30 l0 30 -121 2 c-67 1 -124 -1 -128 -4z"/>
<path d="M3945 1448 c-3 -8 -4 -83 -3 -168 l3 -155 30 0 30 0 0 165 0 165 -28
3 c-16 2 -29 -2 -32 -10z"/>
<path d="M4127 1442 c-55 -33 -74 -190 -33 -271 22 -41 56 -54 133 -49 49 3
68 9 88 28 24 22 25 29 25 136 l0 113 -37 30 c-32 27 -45 31 -93 30 -32 0 -67
-8 -83 -17z m131 -58 c20 -14 22 -24 22 -100 0 -82 -1 -85 -26 -94 -38 -15
-75 -12 -96 7 -27 25 -26 151 2 181 24 26 66 29 98 6z"/>
<path d="M4426 1452 c-2 -4 -6 -77 -7 -162 -2 -134 0 -156 15 -165 21 -13 52
6 49 31 -1 11 -5 55 -9 99 l-7 80 24 -22 c14 -12 42 -58 64 -103 28 -57 47
-82 62 -86 49 -13 52 -5 55 148 4 187 4 188 -33 188 -33 0 -33 3 -29 -122 2
-75 0 -88 -14 -88 -9 0 -16 4 -16 10 0 5 -24 52 -52 105 -42 75 -58 95 -75 95
-12 0 -24 -4 -27 -8z"/>
</g>
</svg>
