<?xml version="1.0" standalone="no"?>
<!DOCTYPE svg PUBLIC "-//W3C//DTD SVG 20010904//EN"
 "http://www.w3.org/TR/2001/REC-SVG-20010904/DTD/svg10.dtd">
<svg version="1.0" xmlns="http://www.w3.org/2000/svg"
 width="750.000000pt" height="750.000000pt" viewBox="0 0 750.000000 750.000000"
 preserveAspectRatio="xMidYMid meet">
<metadata>
Created by potrace 1.10, written by Peter Selinger 2001-2011
</metadata>
<g transform="translate(0.000000,750.000000) scale(0.100000,-0.100000)"
fill="#000000" stroke="none">
<path d="M3470 7486 c0 -10 -16 -16 -52 -20 -206 -20 -330 -37 -458 -66 -52
-12 -115 -25 -140 -31 -25 -5 -56 -13 -70 -18 -14 -4 -52 -16 -85 -26 -92 -27
-247 -80 -280 -95 -11 -5 -58 -25 -105 -44 -92 -37 -316 -148 -392 -193 -25
-15 -68 -41 -95 -57 -442 -263 -882 -685 -1169 -1121 -65 -99 -68 -105 -103
-167 -13 -24 -27 -45 -31 -48 -11 -8 -158 -305 -197 -400 -19 -47 -41 -99 -49
-117 -8 -17 -14 -37 -14 -45 0 -8 -4 -18 -8 -24 -8 -9 -34 -85 -69 -204 -9
-30 -20 -66 -24 -80 -10 -27 -15 -50 -53 -240 -52 -257 -54 -270 -32 -270 8 0
44 20 80 45 37 25 68 45 70 45 3 0 34 20 70 45 37 25 69 45 72 45 2 0 17 9 32
19 15 11 74 50 132 87 140 89 231 148 335 214 126 81 128 83 181 114 27 17 94
59 149 95 55 37 107 71 116 76 39 24 160 101 229 146 69 45 178 114 225 142
30 19 274 176 330 213 28 19 53 34 57 34 3 0 55 33 115 73 146 96 146 96 163
104 8 4 20 11 25 15 10 9 64 44 245 160 73 47 117 74 198 123 9 6 62 40 117
76 55 36 135 88 178 115 42 27 120 77 173 112 53 34 98 62 101 62 3 0 45 27
95 60 49 33 91 60 94 60 2 0 23 14 46 30 22 17 53 30 68 30 15 0 46 -13 68
-30 23 -16 44 -30 46 -30 3 0 45 -27 94 -60 50 -33 92 -60 95 -60 3 0 46 -27
95 -60 50 -33 93 -60 96 -60 3 0 38 -22 78 -49 98 -65 279 -183 300 -196 9 -5
49 -30 89 -55 39 -25 79 -50 88 -55 26 -16 70 -45 176 -114 110 -72 133 -87
154 -97 8 -4 56 -35 107 -68 51 -34 133 -86 181 -116 48 -30 130 -83 183 -118
52 -35 133 -87 180 -115 47 -28 119 -74 160 -102 41 -27 83 -54 92 -60 9 -5
49 -30 89 -55 39 -25 79 -49 88 -55 9 -5 54 -35 101 -66 47 -30 103 -66 125
-79 22 -13 42 -27 45 -30 3 -4 12 -10 20 -13 16 -8 24 -12 155 -97 48 -30 121
-77 163 -104 206 -132 250 -160 290 -187 23 -16 45 -29 47 -29 3 0 34 -20 71
-45 36 -25 67 -45 69 -45 2 0 34 -20 72 -45 73 -49 93 -54 93 -28 0 25 -32
203 -56 313 -8 36 -19 85 -24 110 -6 25 -14 56 -19 70 -4 14 -15 50 -24 80
-35 119 -61 195 -69 204 -4 6 -8 16 -8 24 0 8 -6 28 -14 45 -7 18 -21 52 -31
77 -43 110 -241 498 -270 530 -8 9 -15 19 -15 23 0 3 -36 59 -79 124 -251 374
-632 755 -995 996 -228 152 -452 274 -646 353 -47 19 -94 39 -105 44 -33 15
-188 68 -280 95 -33 10 -71 22 -85 26 -14 5 -45 13 -70 18 -25 6 -88 19 -140
31 -128 29 -252 46 -457 66 -37 4 -53 10 -53 20 0 12 -43 14 -270 14 -227 0
-270 -2 -270 -14z"/>
<path d="M3500 5605 c-63 -7 -142 -19 -175 -28 -33 -9 -80 -21 -105 -27 -25
-7 -59 -18 -77 -26 -17 -8 -36 -14 -42 -14 -19 0 -198 -84 -283 -132 -73 -43
-182 -110 -188 -117 -3 -4 -36 -31 -75 -62 -89 -71 -203 -185 -274 -274 -31
-38 -58 -72 -62 -75 -10 -9 -107 -168 -146 -240 -13 -25 -29 -52 -35 -61 -22
-33 -4 -47 49 -38 116 20 414 39 593 39 242 -1 663 -41 830 -78 25 -6 81 -18
125 -27 95 -19 183 -41 245 -61 25 -8 55 -14 67 -14 12 0 24 -4 28 -9 3 -5 20
-12 38 -16 33 -7 197 -60 232 -75 11 -5 45 -19 75 -31 30 -12 69 -28 87 -35
17 -8 34 -14 37 -14 15 0 330 -153 433 -211 79 -44 261 -155 323 -198 118 -80
155 -106 160 -112 3 -4 23 -19 46 -35 23 -16 74 -55 113 -88 43 -34 76 -55 82
-49 5 5 12 71 15 148 8 154 -7 369 -32 475 -28 119 -46 185 -60 217 -8 17 -14
38 -14 46 0 9 -4 18 -9 21 -5 3 -12 18 -16 33 -3 16 -29 73 -56 128 -54 108
-60 118 -101 183 -16 24 -28 45 -28 47 0 3 -36 49 -79 103 -106 133 -225 249
-346 338 -55 41 -104 78 -110 82 -5 5 -17 11 -25 15 -8 4 -31 17 -50 28 -49
30 -217 113 -265 132 -22 8 -58 22 -80 31 -22 9 -58 20 -80 25 -22 5 -67 17
-100 25 -154 41 -443 54 -665 31z m853 -1249 c36 -27 10 -85 -33 -71 -31 10
-42 38 -24 63 17 25 32 27 57 8z"/>
<path d="M2519 4478 c-5 -62 2 -142 13 -149 39 -25 128 11 128 52 0 24 -17 25
-24 1 -10 -29 -49 -46 -75 -33 -29 16 -31 106 -2 114 32 8 70 -4 76 -24 8 -25
25 -24 25 0 0 11 -10 27 -22 35 -27 19 -118 22 -119 4z"/>
<path d="M2757 4483 c-9 -16 -4 -138 5 -150 13 -16 132 -18 123 -3 -3 6 -26
10 -50 10 -35 0 -47 4 -56 22 -10 18 -8 24 7 35 10 7 32 14 48 14 29 1 29 2
-7 9 -66 12 -71 40 -8 45 14 1 37 3 51 4 20 1 22 3 10 11 -18 11 -117 13 -123
3z"/>
<path d="M2291 4466 c-12 -14 -5 -92 9 -101 4 -2 22 1 39 8 30 11 34 10 51
-10 10 -13 20 -23 23 -23 9 0 14 106 6 123 -12 22 -110 25 -128 3z m103 -14
c3 -5 2 -18 -1 -30 -4 -18 -13 -22 -44 -22 -43 0 -60 20 -39 45 13 16 75 21
84 7z"/>
<path d="M2990 4430 c0 -38 4 -50 15 -50 8 0 15 -8 15 -17 1 -48 43 -52 61 -7
11 32 25 30 37 -3 10 -26 10 -25 11 19 1 25 3 52 6 60 3 7 0 20 -5 28 -9 13
-13 12 -30 -9 -11 -13 -20 -32 -20 -43 0 -14 -6 -19 -22 -16 -18 2 -24 12 -31
46 -12 62 -37 57 -37 -8z"/>
<path d="M2082 4437 c-22 -23 -30 -80 -14 -103 11 -16 55 -44 68 -44 7 0 27
14 44 32 37 37 36 70 -3 112 -30 32 -67 33 -95 3z m82 -13 c27 -10 20 -75 -10
-97 -25 -19 -25 -18 -50 8 -51 55 -10 116 60 89z"/>
<path d="M3372 4407 c-6 -7 -14 -38 -18 -68 -6 -52 -5 -55 20 -67 34 -15 100
-17 74 -2 -9 6 -27 9 -40 8 -19 -3 -24 2 -26 27 -2 18 2 33 12 41 15 10 15 13
0 25 -14 11 -13 15 8 31 23 17 23 18 2 18 -12 0 -26 -6 -32 -13z"/>
<path d="M3715 4318 c-4 -24 -12 -48 -17 -55 -5 -7 -8 -22 -5 -35 l4 -23 8 22
c9 27 35 37 76 28 36 -8 79 16 79 45 0 23 -69 60 -111 60 -24 0 -28 -5 -34
-42z m97 5 c24 -22 23 -39 -4 -46 -41 -11 -68 2 -68 34 0 25 4 29 27 29 14 0
35 -7 45 -17z"/>
<path d="M3957 4303 c-15 -15 -5 -23 28 -23 39 0 47 14 13 24 -29 7 -33 7 -41
-1z"/>
<path d="M4030 4274 c0 -3 4 -14 10 -24 13 -25 -7 -39 -48 -33 -23 4 -34 12
-38 29 -9 37 -21 28 -32 -23 -12 -56 -9 -63 18 -38 29 26 74 10 78 -28 4 -34
22 -36 22 -2 0 14 9 39 21 54 17 23 19 32 10 50 -10 19 -41 30 -41 15z"/>
<path d="M2345 4259 c-49 -5 -133 -14 -185 -20 -52 -6 -123 -15 -157 -19 -35
-4 -69 -12 -76 -19 -21 -17 -44 -123 -56 -261 -14 -157 -14 -252 0 -399 10
-102 19 -152 60 -326 9 -38 23 -78 55 -152 8 -17 14 -35 14 -39 0 -8 89 -187
114 -229 78 -133 189 -277 297 -384 65 -65 262 -231 274 -231 2 0 23 -12 47
-27 24 -16 52 -33 63 -40 39 -23 222 -113 229 -113 5 0 22 -6 39 -14 125 -54
319 -101 478 -116 204 -18 460 -4 614 34 170 43 168 42 262 82 17 8 34 14 39
14 20 0 288 143 312 167 7 7 18 13 23 13 16 0 201 154 278 231 77 77 231 262
231 278 0 5 6 16 13 23 26 26 144 248 174 328 36 94 43 121 36 134 -9 14 -132
122 -203 176 -25 19 -52 40 -60 47 -69 55 -211 154 -282 198 -138 85 -191 117
-233 140 -85 47 -247 129 -305 154 -30 13 -73 31 -95 41 -22 10 -60 26 -85 35
-25 10 -59 24 -77 31 -17 8 -37 14 -45 14 -8 0 -18 4 -24 9 -19 18 -379 122
-534 154 -217 46 -351 65 -610 87 -142 12 -491 11 -625 -1z m-99 -150 c21 -20
21 -22 6 -50 -23 -39 -61 -39 -83 0 -16 27 -16 30 4 50 27 26 45 27 73 0z
m2033 -248 c9 -6 11 -18 7 -36 -5 -21 -12 -26 -34 -23 -21 2 -28 9 -30 30 -3
24 2 29 38 37 3 0 11 -3 19 -8z m-1219 -171 c15 -28 3 -59 -25 -66 -29 -7 -41
-1 -48 27 -6 23 23 59 48 59 8 0 19 -9 25 -20z m716 -235 c4 -8 3 -26 0 -40
-5 -20 -13 -25 -36 -25 -23 0 -31 5 -36 25 -9 38 2 55 36 55 18 0 33 -6 36
-15z m-1201 -55 c0 -8 -8 -16 -17 -18 -13 -2 -18 3 -18 18 0 15 5 20 18 18 9
-2 17 -10 17 -18z m-185 -60 c0 -6 12 -15 26 -20 19 -8 23 -14 16 -23 -6 -6
-12 -23 -14 -37 -3 -22 -8 -25 -43 -25 -35 0 -40 3 -43 25 -2 14 -8 31 -14 37
-7 9 -3 15 16 23 14 5 26 14 26 20 0 5 7 10 15 10 8 0 15 -5 15 -10z m1606
-84 c-7 -12 -27 -22 -43 -24 -26 -3 -32 1 -37 24 -4 14 -6 27 -4 28 50 36 51
37 75 14 20 -19 22 -24 9 -42z m-422 38 c32 -12 11 -64 -26 -64 -25 0 -43 37
-27 56 12 15 28 18 53 8z m84 -152 c2 -14 -2 -22 -12 -22 -19 0 -29 17 -22 36
8 22 30 12 34 -14z m-1483 4 c17 -12 18 -18 7 -40 -14 -32 -52 -35 -70 -5 -11
18 -11 24 4 40 20 23 34 24 59 5z m630 -26 c3 -6 3 -19 0 -30 -8 -26 -51 -27
-65 -1 -13 25 -13 27 6 45 16 16 45 9 59 -14z m2278 1 c27 -14 35 -35 17 -46
-5 -3 -10 -14 -10 -24 0 -15 -8 -18 -39 -17 -36 1 -40 3 -45 35 -4 26 -1 37
17 52 12 10 24 17 27 16 3 -2 17 -9 33 -16z m260 -39 c23 -25 2 -55 -33 -50
-28 3 -38 31 -20 53 17 20 33 19 53 -3z m-180 -146 c14 -21 14 -26 0 -45 -10
-15 -23 -21 -41 -19 -49 6 -36 86 14 88 7 0 19 -11 27 -24z m-2432 4 c25 -14
24 -46 -2 -60 -37 -20 -67 28 -37 58 15 15 15 15 39 2z m1044 -14 c16 -11 17
-19 9 -47 -9 -30 -14 -34 -44 -34 -30 0 -35 4 -44 34 -8 28 -7 36 9 47 10 8
26 14 35 14 9 0 25 -6 35 -14z m1285 -162 c0 -29 -20 -43 -52 -37 -38 7 -46
39 -18 68 22 23 24 23 46 7 13 -9 24 -27 24 -38z m-2040 26 c28 -20 29 -21 12
-50 -21 -37 -71 -43 -79 -10 -3 11 -9 20 -14 20 -16 0 -9 22 14 41 28 23 33
23 67 -1z m1679 -64 c18 -22 -4 -58 -32 -54 -37 5 -36 68 1 68 11 0 25 -6 31
-14z m-512 -22 c8 -22 -10 -49 -32 -49 -10 0 -22 7 -28 16 -15 24 -1 49 28 49
15 0 28 -7 32 -16z m706 -12 c14 -15 15 -21 4 -36 -15 -21 -45 -18 -60 6 -8
12 -7 21 2 32 18 21 34 20 54 -2z m-402 -28 c17 -21 0 -49 -32 -49 -18 0 -25
6 -27 24 -6 38 34 55 59 25z m221 -119 c9 -21 8 -28 -7 -45 -25 -28 -53 -25
-65 6 -13 32 -13 30 6 48 23 24 53 20 66 -9z m-380 -37 c12 -9 15 -22 11 -40
-7 -38 -58 -40 -75 -3 -19 43 25 73 64 43z m377 -152 c9 -11 10 -20 1 -36 -14
-25 -48 -24 -64 3 -9 15 -7 21 8 33 25 18 40 18 55 0z"/>
<path d="M4184 4192 c-33 -28 -43 -62 -28 -99 25 -60 71 -69 115 -22 36 39 37
74 2 111 -31 32 -59 35 -89 10z m77 -24 c10 -13 18 -30 18 -38 0 -25 -36 -60
-61 -60 -13 0 -31 12 -41 26 -18 25 -18 25 8 59 30 41 50 44 76 13z"/>
<path d="M4397 4110 c-15 -12 -27 -28 -27 -36 0 -21 18 -17 30 6 13 24 42 26
75 4 27 -18 32 -9 12 18 -22 28 -60 32 -90 8z"/>
<path d="M4601 4024 c-12 -15 -21 -35 -21 -45 0 -10 -4 -20 -9 -23 -13 -8 -20
-45 -10 -52 5 -3 13 6 19 20 6 16 17 26 30 26 23 0 24 3 8 30 -18 28 0 41 45
33 33 -5 37 -9 37 -34 0 -24 -4 -29 -25 -29 -25 0 -33 -14 -15 -25 6 -3 10
-17 10 -31 0 -36 17 -29 24 12 4 19 14 38 22 41 20 7 18 46 -4 64 -15 13 -74
39 -88 39 -1 0 -12 -12 -23 -26z"/>
<path d="M4439 3999 c-21 -18 -25 -18 -35 -5 -6 9 -16 16 -23 16 -34 0 16 -48
59 -56 22 -5 31 -2 39 14 6 12 11 25 11 30 0 20 -29 20 -51 1z"/>
<path d="M4804 3913 c-10 -16 -27 -44 -39 -64 -25 -39 -19 -60 22 -73 11 -4
27 -13 33 -21 14 -17 50 -20 50 -5 0 5 -11 12 -24 16 -34 8 -68 47 -60 68 7
17 17 17 57 1 10 -4 17 -3 17 3 0 6 -9 14 -20 17 -19 6 -27 34 -14 48 7 7 53
-11 77 -32 13 -11 20 -12 29 -3 8 8 7 13 -8 19 -10 4 -25 13 -32 20 -7 7 -20
13 -28 13 -8 0 -14 5 -14 10 0 20 -30 9 -46 -17z"/>
<path d="M5007 3793 c-16 -15 -5 -49 24 -79 35 -36 34 -60 -3 -66 -23 -3 -23
-3 -2 -15 17 -10 25 -9 42 3 30 21 27 44 -9 83 -29 33 -33 61 -7 61 18 0 33
-12 41 -32 8 -22 27 -24 27 -4 0 34 -90 73 -113 49z"/>
<path d="M4970 3680 c13 -24 35 -27 26 -4 -3 9 -6 18 -6 20 0 2 -7 4 -15 4
-13 0 -14 -4 -5 -20z"/>
<path d="M5207 3662 c-22 -24 -22 -29 8 -64 33 -39 33 -68 1 -68 -18 0 -27 8
-35 31 -10 28 -31 33 -31 7 0 -19 62 -68 86 -68 31 0 47 31 34 64 -5 14 -13
26 -18 26 -11 0 -32 46 -25 54 14 14 38 4 64 -26 18 -21 28 -28 29 -18 0 19
-63 80 -83 80 -7 0 -21 -8 -30 -18z"/>
<path d="M5388 3507 c-24 -19 -28 -31 -28 -71 0 -39 3 -49 20 -53 11 -3 20 -9
20 -14 0 -20 41 -7 74 25 43 40 45 64 10 105 -31 37 -59 39 -96 8z m76 -20
c42 -31 -17 -119 -62 -91 -24 15 -27 62 -6 85 20 22 43 24 68 6z"/>
<path d="M34 3218 c4 -24 11 -70 16 -103 5 -33 18 -103 30 -155 12 -52 25
-115 31 -140 5 -25 13 -56 18 -70 4 -14 15 -50 24 -80 35 -119 61 -195 69
-204 4 -6 8 -16 8 -24 0 -8 6 -28 14 -45 8 -18 30 -70 49 -117 42 -103 169
-358 204 -408 14 -21 29 -46 34 -57 23 -48 136 -217 213 -320 243 -323 580
-643 895 -851 64 -42 127 -84 141 -94 14 -9 32 -19 40 -23 8 -4 38 -21 65 -37
76 -46 299 -157 395 -197 47 -19 94 -39 105 -44 35 -15 152 -55 260 -88 39
-12 84 -26 101 -31 16 -5 50 -14 75 -20 24 -5 73 -16 109 -24 64 -14 125 -26
245 -47 253 -45 924 -45 1135 0 25 6 72 15 105 20 33 6 92 18 130 26 39 9 90
20 115 25 25 6 56 14 70 19 14 4 50 15 80 24 119 35 195 61 205 69 5 4 15 8
23 8 8 0 28 6 45 14 18 7 71 30 118 50 96 40 317 150 394 196 28 16 57 33 65
37 8 4 26 14 40 23 14 10 77 52 141 94 315 208 652 528 895 851 65 86 184 262
184 272 0 4 7 14 15 23 30 33 221 406 264 515 13 33 29 74 37 92 8 17 14 37
14 45 0 8 4 18 8 23 8 10 34 86 69 205 9 30 20 66 24 80 5 14 13 45 19 70 5
25 16 77 25 115 8 39 20 97 26 130 5 33 14 79 19 103 13 55 13 92 -1 92 -5 0
-47 -24 -92 -53 -45 -30 -104 -67 -130 -83 -27 -16 -59 -36 -72 -44 -12 -8
-53 -35 -91 -58 -38 -24 -103 -66 -144 -93 -41 -27 -115 -74 -165 -105 -49
-31 -124 -78 -165 -105 -41 -27 -82 -52 -90 -56 -8 -4 -19 -11 -25 -15 -14
-12 -108 -73 -126 -82 -8 -3 -48 -29 -89 -56 -41 -27 -104 -68 -140 -90 -36
-23 -99 -63 -140 -90 -41 -27 -115 -75 -165 -106 -49 -31 -124 -78 -165 -105
-41 -27 -104 -67 -140 -90 -36 -22 -110 -70 -165 -105 -114 -72 -228 -144
-253 -159 -24 -15 -222 -144 -254 -166 -15 -11 -29 -19 -32 -19 -3 0 -33 -19
-68 -42 -35 -24 -73 -48 -84 -55 -39 -24 -151 -96 -224 -144 -68 -44 -186
-119 -228 -144 -9 -6 -44 -28 -77 -50 -33 -22 -67 -44 -76 -50 -9 -5 -48 -29
-85 -53 -38 -24 -78 -48 -88 -55 -11 -7 -38 -24 -59 -39 -22 -16 -52 -28 -67
-28 -15 0 -45 12 -67 28 -21 15 -48 32 -59 39 -10 7 -50 31 -88 55 -37 24 -76
48 -85 53 -9 6 -48 31 -86 56 -76 50 -180 117 -207 134 -52 31 -162 102 -228
145 -41 28 -82 53 -90 57 -8 4 -43 26 -78 50 -35 24 -65 43 -68 43 -3 0 -17 8
-32 19 -49 34 -237 156 -252 163 -8 5 -49 30 -90 57 -41 27 -115 75 -165 106
-49 31 -124 78 -165 105 -41 26 -106 68 -144 92 -38 23 -79 50 -92 58 -12 8
-53 34 -91 58 -37 23 -102 65 -143 92 -65 42 -177 114 -229 145 -9 6 -54 35
-101 66 -47 30 -112 72 -145 93 -33 20 -94 59 -135 85 -41 27 -115 74 -165
105 -49 31 -124 79 -165 106 -41 27 -106 68 -143 92 -38 24 -79 50 -92 58 -13
8 -45 28 -72 44 -26 16 -84 53 -129 83 -100 66 -109 67 -100 11z"/>
</g>
</svg>
