<?xml version="1.0" standalone="no"?>
<!DOCTYPE svg PUBLIC "-//W3C//DTD SVG 20010904//EN"
 "http://www.w3.org/TR/2001/REC-SVG-20010904/DTD/svg10.dtd">
<svg version="1.0" xmlns="http://www.w3.org/2000/svg"
 width="250.000000pt" height="250.000000pt" viewBox="0 0 250.000000 250.000000"
 preserveAspectRatio="xMidYMid meet">
<metadata>
Created by potrace 1.10, written by Peter Selinger 2001-2011
</metadata>
<g transform="translate(0.000000,250.000000) scale(0.100000,-0.100000)"
fill="#000000" stroke="none">
<path d="M1114 2490 c-39 -4 -81 -11 -92 -15 l-22 -6 0 -485 0 -484 -484 0
c-446 0 -484 -1 -490 -17 -4 -9 -12 -66 -18 -125 -10 -103 0 -295 18 -341 6
-16 44 -17 490 -17 l484 0 2 -487 3 -487 45 -9 c59 -12 342 -12 400 0 l45 9 3
487 2 487 487 2 487 3 9 45 c12 58 12 342 0 400 l-9 45 -487 3 -487 2 0 484
c0 439 -2 484 -16 490 -25 10 -192 26 -249 24 -27 0 -82 -4 -121 -8z"/>
<path d="M704 2371 c-54 -27 -139 -77 -187 -112 -86 -61 -267 -239 -267 -263
0 -9 555 -296 574 -296 3 0 6 162 6 360 0 294 -2 360 -13 360 -8 0 -58 -22
-113 -49z"/>
<path d="M1670 2060 c0 -198 2 -360 5 -360 19 0 575 288 575 298 0 23 -214
228 -293 281 -79 53 -250 141 -274 141 -10 0 -13 -68 -13 -360z"/>
<path d="M2060 1790 l-235 -119 132 0 133 -1 135 67 c74 37 135 72 135 77 0
14 -50 96 -58 95 -4 0 -113 -54 -242 -119z"/>
<path d="M110 1758 c-11 -24 -20 -48 -20 -54 0 -24 54 -34 178 -33 l127 0
-125 64 c-69 35 -129 64 -133 64 -4 1 -17 -18 -27 -41z"/>
<path d="M275 763 c-72 -36 -132 -67 -134 -69 -6 -5 17 -56 38 -82 l17 -24
240 121 239 120 -135 0 -135 0 -130 -66z"/>
<path d="M2230 760 l135 -68 22 46 c13 26 23 52 23 58 0 24 -54 34 -183 33
l-132 0 135 -69z"/>
<path d="M538 661 c-159 -80 -288 -152 -288 -159 0 -23 214 -228 293 -281 79
-53 250 -141 274 -141 11 0 13 69 13 365 0 201 -1 364 -2 363 -2 0 -132 -67
-290 -147z"/>
<path d="M1670 440 c0 -292 3 -360 13 -360 24 0 195 88 274 141 79 53 293 258
293 281 0 10 -556 298 -575 298 -3 0 -5 -162 -5 -360z"/>
</g>
</svg>
