<?xml version="1.0" standalone="no"?>
<!DOCTYPE svg PUBLIC "-//W3C//DTD SVG 20010904//EN"
 "http://www.w3.org/TR/2001/REC-SVG-20010904/DTD/svg10.dtd">
<svg version="1.0" xmlns="http://www.w3.org/2000/svg"
 width="250.000000pt" height="250.000000pt" viewBox="0 0 250.000000 250.000000"
 preserveAspectRatio="xMidYMid meet">
<metadata>
Created by potrace 1.10, written by Peter Selinger 2001-2011
</metadata>
<g transform="translate(0.000000,250.000000) scale(0.100000,-0.100000)"
fill="#000000" stroke="none">
<path d="M1100 2489 c-352 -44 -676 -240 -878 -532 -29 -41 -52 -78 -52 -81 0
-3 486 -6 1080 -6 594 0 1080 3 1080 6 0 3 -23 40 -52 81 -185 267 -477 458
-796 519 -98 19 -287 25 -382 13z"/>
<path d="M855 1710 c-3 -5 -1 -10 6 -10 8 0 8 -4 -1 -15 -7 -8 -10 -21 -7 -28
4 -10 -5 -14 -37 -13 -24 1 -51 -5 -61 -14 -9 -8 -30 -13 -46 -12 -33 4 -87
-25 -95 -50 -11 -36 7 -75 56 -117 27 -24 48 -48 47 -54 -1 -7 -22 -14 -47
-17 l-45 -5 -5 -80 -5 -80 -83 -2 c-97 -2 -137 -20 -127 -56 4 -12 16 -30 28
-41 22 -18 22 -18 25 12 3 27 8 31 43 37 21 4 57 4 79 0 l40 -7 0 -125 c0
-162 20 -208 101 -228 l24 -6 0 146 c0 79 3 145 8 145 4 0 7 -64 7 -141 l0
-142 28 6 c15 3 35 0 45 -8 11 -8 34 -11 60 -8 51 6 62 13 19 13 -22 0 -30 4
-26 13 3 8 -1 19 -9 25 -12 10 -13 8 -10 -13 5 -23 4 -24 -28 -15 -19 6 -35
10 -36 10 -2 0 -3 48 -3 107 0 132 8 132 12 -1 1 -53 5 -99 9 -102 4 -2 18 9
32 26 l25 29 16 -24 c32 -48 119 -74 166 -50 57 30 70 62 70 179 l0 106 -83 0
c-83 0 -83 0 -94 30 -6 16 -25 38 -42 47 -31 18 -31 18 -31 106 l0 87 61 0
c63 0 99 12 99 33 0 7 20 29 44 50 50 41 66 85 46 123 -15 27 -58 47 -93 42
-13 -1 -32 4 -42 12 -10 9 -36 15 -61 14 -32 -1 -41 3 -37 13 3 7 0 20 -7 28
-9 11 -9 15 -1 15 7 0 9 5 6 10 -3 6 -12 10 -20 10 -8 0 -17 -4 -20 -10z m-21
-86 c28 -11 17 -31 -25 -43 -54 -16 -76 0 -40 30 24 20 39 23 65 13z m147 -13
c18 -15 21 -23 13 -31 -15 -15 -94 7 -94 26 0 28 50 31 81 5z m-251 -31 c0
-15 -7 -20 -26 -20 -14 0 -34 -5 -45 -10 -16 -9 -19 -7 -19 9 0 24 25 40 63
41 20 0 27 -5 27 -20z m147 -17 c-3 -10 -5 -4 -5 12 0 17 2 24 5 18 2 -7 2
-21 0 -30z m214 27 c10 -6 19 -20 19 -31 0 -16 -3 -18 -19 -9 -11 5 -31 10
-45 10 -19 0 -26 5 -26 20 0 23 37 28 71 10z m-214 -67 c-4 -3 -7 0 -7 7 0 7
3 10 7 7 3 -4 3 -10 0 -14z m-120 -10 c-4 -3 -7 0 -7 7 0 7 3 10 7 7 3 -4 3
-10 0 -14z m240 0 c-4 -3 -7 0 -7 7 0 7 3 10 7 7 3 -4 3 -10 0 -14z m-210 -20
c-4 -3 -7 0 -7 7 0 7 3 10 7 7 3 -4 3 -10 0 -14z m70 11 c-3 -3 -12 -4 -19 -1
-8 3 -5 6 6 6 11 1 17 -2 13 -5z m60 0 c-3 -3 -12 -4 -19 -1 -8 3 -5 6 6 6 11
1 17 -2 13 -5z m-170 -11 c-4 -3 -10 -3 -14 0 -3 4 0 7 7 7 7 0 10 -3 7 -7z
m-62 -13 c3 -5 1 -10 -4 -10 -6 0 -11 5 -11 10 0 6 2 10 4 10 3 0 8 -4 11 -10z
m392 -7 c-4 -3 -7 0 -7 7 0 7 3 10 7 7 3 -4 3 -10 0 -14z m-30 0 c-4 -3 -10
-3 -14 0 -3 4 0 7 7 7 7 0 10 -3 7 -7z m-140 -50 c-4 -3 -7 0 -7 7 0 7 3 10 7
7 3 -4 3 -10 0 -14z m-170 -10 c-4 -3 -7 0 -7 7 0 7 3 10 7 7 3 -4 3 -10 0
-14z m280 0 c-4 -3 -7 0 -7 7 0 7 3 10 7 7 3 -4 3 -10 0 -14z m-300 -150 c-4
-3 -7 0 -7 7 0 7 3 10 7 7 3 -4 3 -10 0 -14z m70 0 c-4 -3 -7 0 -7 7 0 7 3 10
7 7 3 -4 3 -10 0 -14z m-212 -73 c3 -5 4 -10 1 -10 -3 0 -8 5 -11 10 -3 6 -4
10 -1 10 3 0 8 -4 11 -10z m122 -297 c-2 -38 -3 -7 -3 67 0 74 1 105 3 68 2
-38 2 -98 0 -135z m-50 35 c-2 -29 -3 -8 -3 47 0 55 1 79 3 53 2 -26 2 -71 0
-100z m363 132 c0 -5 -4 -10 -10 -10 -5 0 -10 5 -10 10 0 6 5 10 10 10 6 0 10
-4 10 -10z m77 -55 c0 -36 -3 -61 -6 -56 -6 8 -6 24 -2 96 0 14 3 25 5 25 3 0
4 -29 3 -65z m-80 8 c-4 -3 -10 -3 -14 0 -3 4 0 7 7 7 7 0 10 -3 7 -7z m-77
-7 c0 -3 -5 -8 -12 -12 -7 -4 -8 -3 -4 4 7 12 16 16 16 8z m-63 -13 c-4 -3
-10 -3 -14 0 -3 4 0 7 7 7 7 0 10 -3 7 -7z m118 -3 c3 -6 -1 -7 -9 -4 -18 7
-21 14 -7 14 6 0 13 -4 16 -10z m-118 -72 c-2 -13 -4 -3 -4 22 0 25 2 35 4 23
2 -13 2 -33 0 -45z m48 42 c3 -5 4 -10 1 -10 -3 0 -8 5 -11 10 -3 6 -4 10 -1
10 3 0 8 -4 11 -10z m32 3 c-4 -3 -10 -3 -14 0 -3 4 0 7 7 7 7 0 10 -3 7 -7z
m113 3 c0 -3 -5 -8 -12 -12 -7 -4 -8 -3 -4 4 7 12 16 16 16 8z m-139 -49 c-10
-9 -11 -8 -5 6 3 10 9 15 12 12 3 -3 0 -11 -7 -18z m59 13 c0 -5 -10 -14 -22
-20 -21 -10 -21 -10 -6 3 10 8 15 17 11 20 -3 4 -1 7 5 7 7 0 12 -4 12 -10z
m105 -10 c3 -5 4 -10 1 -10 -3 0 -8 5 -11 10 -3 6 -4 10 -1 10 3 0 8 -4 11
-10z m-30 -10 c3 -6 -1 -7 -9 -4 -18 7 -21 14 -7 14 6 0 13 -4 16 -10z m-115
-30 c0 -5 -2 -10 -4 -10 -3 0 -8 5 -11 10 -3 6 -1 10 4 10 6 0 11 -4 11 -10z
m140 6 c0 -2 -7 -9 -15 -16 -13 -11 -14 -10 -9 4 5 14 24 23 24 12z m-70 -36
c0 -5 -5 -10 -11 -10 -5 0 -7 5 -4 10 3 6 8 10 11 10 2 0 4 -4 4 -10z"/>
<path d="M485 1436 c-44 -24 -47 -27 -34 -43 10 -12 10 -16 -1 -23 -8 -5 -10
-14 -5 -26 5 -11 9 -23 9 -28 1 -5 21 -9 46 -10 41 -1 45 2 55 28 8 22 7 30
-3 34 -10 3 -10 7 -1 18 15 19 4 44 -20 44 -11 0 -21 4 -23 8 -1 4 -12 3 -23
-2z m48 -83 c-13 -2 -35 -2 -50 0 -16 2 -5 4 22 4 28 0 40 -2 28 -4z"/>
<path d="M1222 1433 c-28 -5 -40 -31 -21 -44 12 -8 12 -10 0 -18 -10 -6 -11
-16 -4 -36 8 -25 14 -28 53 -29 25 -1 45 4 46 9 0 6 4 18 9 29 5 12 3 21 -5
26 -11 7 -11 11 0 25 8 9 9 19 4 24 -13 12 -55 19 -82 14z m56 -80 c-16 -2
-40 -2 -55 0 -16 2 -3 4 27 4 30 0 43 -2 28 -4z"/>
<path d="M1016 1343 c-12 -12 -6 -19 19 -21 14 -1 25 0 25 3 0 9 -37 24 -44
18z"/>
<path d="M1075 1320 c3 -5 8 -10 11 -10 2 0 4 5 4 10 0 6 -5 10 -11 10 -5 0
-7 -4 -4 -10z"/>
<path d="M913 1303 c0 -9 4 -10 14 -2 7 6 13 12 13 14 0 1 -6 2 -13 2 -8 0
-14 -6 -14 -14z"/>
<path d="M980 1305 c7 -8 16 -12 21 -9 13 8 1 24 -18 24 -13 0 -13 -3 -3 -15z"/>
<path d="M930 1280 c0 -7 3 -10 7 -7 3 4 3 10 0 14 -4 3 -7 0 -7 -7z"/>
<path d="M970 1270 c0 -7 3 -10 7 -7 3 4 3 10 0 14 -4 3 -7 0 -7 -7z"/>
<path d="M1035 1271 c-6 -5 -19 -11 -30 -14 -19 -4 -19 -5 1 -6 12 0 27 6 34
14 14 16 10 20 -5 6z"/>
<path d="M920 1236 c0 -8 4 -17 9 -21 6 -3 9 4 8 15 -1 23 -17 28 -17 6z"/>
<path d="M1070 1240 c0 -7 3 -10 7 -7 3 4 3 10 0 14 -4 3 -7 0 -7 -7z"/>
<path d="M1138 1214 c-5 -4 -8 -18 -8 -32 0 -23 2 -24 45 -18 24 4 60 4 80 0
30 -5 35 -10 35 -34 0 -23 4 -27 19 -23 17 4 41 41 41 63 0 5 -11 17 -25 26
-27 17 -174 32 -187 18z m37 -24 c3 -5 4 -10 1 -10 -3 0 -8 5 -11 10 -3 6 -4
10 -1 10 3 0 8 -4 11 -10z m32 -7 c-4 -3 -7 0 -7 7 0 7 3 10 7 7 3 -4 3 -10 0
-14z m30 0 c-4 -3 -7 0 -7 7 0 7 3 10 7 7 3 -4 3 -10 0 -14z"/>
<path d="M980 1190 c0 -7 3 -10 7 -7 3 4 3 10 0 14 -4 3 -7 0 -7 -7z"/>
<path d="M957 1176 c-3 -8 0 -17 7 -19 10 -4 12 1 9 14 -6 23 -9 24 -16 5z"/>
<path d="M1034 1135 c11 -8 22 -12 25 -9 6 6 -19 24 -34 24 -5 -1 -1 -7 9 -15z"/>
<path d="M538 1118 c-3 -22 -14 -30 -90 -62 -41 -17 -49 -45 -24 -78 18 -24
26 -22 26 6 0 19 12 29 66 55 62 30 65 33 62 64 -4 39 -35 51 -40 15z"/>
<path d="M1177 1133 c-4 -3 -7 -19 -7 -34 0 -25 8 -32 69 -61 43 -20 67 -36
64 -44 -9 -24 8 -36 23 -17 30 40 18 62 -51 93 -49 22 -65 34 -65 50 0 19 -19
27 -33 13z"/>
<path d="M448 880 c-7 -16 -16 -30 -20 -30 -5 0 -8 -3 -8 -7 0 -5 36 -8 80 -8
44 0 80 3 80 8 0 4 -4 7 -9 7 -5 0 -11 14 -14 30 -6 28 -10 30 -51 30 -40 0
-46 -3 -58 -30z m80 -17 c-16 -2 -40 -2 -55 0 -16 2 -3 4 27 4 30 0 43 -2 28
-4z"/>
<path d="M1194 880 c-4 -16 -10 -30 -15 -30 -5 0 -9 -8 -9 -18 0 -15 10 -17
80 -17 70 0 80 2 80 17 0 10 -4 18 -9 18 -5 0 -12 14 -16 30 -6 28 -9 30 -56
30 -47 0 -50 -2 -55 -30z m84 -17 c-16 -2 -40 -2 -55 0 -16 2 -3 4 27 4 30 0
43 -2 28 -4z m42 -31 c0 -4 -32 -7 -70 -7 -39 0 -70 3 -70 7 0 3 32 6 70 6 39
0 70 -3 70 -6z"/>
<path d="M433 822 c-6 -4 24 -7 67 -7 43 0 76 2 74 5 -8 7 -129 9 -141 2z"/>
<path d="M438 802 c-43 -9 -12 -17 62 -17 44 0 80 3 80 8 0 4 -3 7 -7 8 -23 3
-121 4 -135 1z"/>
<path d="M1188 802 c-42 -9 -12 -17 62 -17 44 0 80 3 80 8 0 4 -6 8 -12 8 -40
4 -115 4 -130 1z"/>
<path d="M793 783 c4 -3 10 -3 14 0 3 4 0 7 -7 7 -7 0 -10 -3 -7 -7z"/>
<path d="M170 624 c0 -3 23 -40 52 -81 185 -267 475 -457 795 -519 119 -24
347 -24 466 0 320 62 610 252 795 519 29 41 52 78 52 81 0 3 -486 6 -1080 6
-594 0 -1080 -3 -1080 -6z"/>
</g>
</svg>
